<?xml version="1.0" standalone="no"?>
<!DOCTYPE svg PUBLIC "-//W3C//DTD SVG 20010904//EN"
 "http://www.w3.org/TR/2001/REC-SVG-20010904/DTD/svg10.dtd">
<svg version="1.0" xmlns="http://www.w3.org/2000/svg"
 width="300.000000pt" height="181.000000pt" viewBox="0 0 300.000000 181.000000"
 preserveAspectRatio="xMidYMid meet">
<metadata>
Created by potrace 1.10, written by Peter Selinger 2001-2011
</metadata>
<g transform="translate(0.000000,181.000000) scale(0.100000,-0.100000)"
fill="#000000" stroke="none">
<path d="M75 1803 c-57 -12 -75 -25 -75 -54 l0 -28 42 19 c22 10 48 24 57 32
18 16 38 18 33 3 -2 -5 5 -2 16 8 23 21 61 22 64 2 0 -8 1 -20 2 -27 1 -6 -12
-19 -29 -28 -39 -22 -68 -74 -103 -185 -18 -58 -38 -100 -55 -117 -15 -15 -27
-37 -27 -49 0 -20 2 -20 22 7 13 16 31 38 41 49 10 11 25 32 33 47 7 15 23 29
34 33 11 3 20 13 20 22 0 9 -6 13 -15 9 -8 -3 -15 0 -15 7 0 19 90 160 111
175 25 17 24 26 -5 56 -20 22 -31 26 -77 25 -30 -1 -63 -3 -74 -6z"/>
<path d="M442 1805 c8 -8 227 -9 235 -2 3 4 -49 7 -117 7 -68 0 -121 -2 -118
-5z"/>
<path d="M2795 1800 c-3 -5 -3 -10 2 -10 4 0 1 -5 -7 -10 -11 -7 -12 -12 -4
-20 8 -8 16 -5 30 13 11 13 26 26 34 30 8 3 1 6 -17 6 -17 1 -35 -3 -38 -9z"/>
<path d="M340 1782 c0 -15 48 -54 59 -48 5 4 12 -3 16 -14 3 -11 20 -29 37
-41 17 -12 50 -53 75 -91 46 -71 54 -80 48 -50 -13 62 -102 187 -146 204 -10
4 -24 16 -31 28 -12 19 -58 29 -58 12z"/>
<path d="M810 1755 c0 -12 40 -48 47 -42 3 4 -3 16 -15 27 -21 20 -32 25 -32
15z"/>
<path d="M2993 1690 c0 -36 2 -50 4 -32 2 17 2 47 0 65 -2 17 -4 3 -4 -33z"/>
<path d="M306 1684 c-4 -22 -2 -66 4 -99 5 -33 10 -86 10 -117 0 -60 15 -78
26 -32 12 47 -3 255 -19 271 -13 13 -16 11 -21 -23z"/>
<path d="M247 1689 c-3 -14 -18 -43 -33 -64 -20 -30 -27 -54 -30 -102 -5 -106
23 -67 42 57 4 25 13 58 21 73 8 16 13 36 11 45 -3 12 -6 10 -11 -9z"/>
<path d="M2659 1633 c-1 -4 -2 -17 -3 -28 -1 -16 -10 -21 -46 -25 l-45 -5 34
-8 c18 -4 52 -6 75 -6 24 1 32 4 18 6 -17 3 -22 9 -17 21 12 28 11 45 -2 49
-7 3 -14 1 -14 -4z"/>
<path d="M2830 1538 c95 -45 170 -75 170 -69 0 10 -128 68 -167 76 l-28 5 25
-12z"/>
<path d="M2300 1521 c-14 -3 -66 -26 -117 -51 l-92 -45 1 -46 0 -47 71 -6 c40
-4 86 -9 104 -12 26 -5 33 -2 43 18 10 19 10 21 -1 11 -16 -16 -62 -16 -131
-2 -63 13 -72 20 -63 48 4 14 32 34 80 56 41 20 77 40 80 45 3 6 21 10 38 10
18 1 43 7 57 15 l25 14 -35 -1 c-19 0 -46 -3 -60 -7z"/>
<path d="M646 1464 c-26 -26 -35 -48 -39 -100 -3 -32 -13 -63 -30 -88 -30 -44
-36 -110 -13 -141 12 -17 12 -21 -2 -31 -21 -15 -25 -91 -6 -98 9 -3 14 -20
14 -46 0 -33 3 -40 19 -40 11 0 26 -8 33 -17 11 -15 27 -18 105 -15 l91 3 13
32 c14 34 13 76 -2 91 -18 20 -9 36 21 36 26 0 30 3 30 29 0 16 -5 31 -12 33
-7 3 -10 26 -9 66 1 54 -2 65 -26 92 -16 18 -39 32 -53 32 -14 1 -31 6 -37 11
-8 5 -13 6 -13 0 0 -5 -21 -10 -47 -11 -25 -1 -56 -5 -67 -8 -18 -6 -19 -5 -7
10 7 9 20 16 27 16 8 0 14 5 14 10 0 6 11 10 25 10 19 0 25 5 26 23 1 16 2 18
6 5 2 -10 11 -18 19 -18 12 0 12 4 4 20 -18 34 -9 84 16 88 17 2 25 -6 38 -38
9 -22 16 -53 17 -68 l1 -27 7 25 c10 33 -6 95 -30 116 -16 14 -23 15 -46 5
-18 -8 -29 -9 -37 -1 -14 14 -32 13 -50 -6z m49 -14 c9 -14 -5 -100 -16 -100
-5 0 -9 17 -9 38 0 27 -3 33 -10 22 -5 -8 -10 -27 -10 -42 0 -15 -4 -30 -10
-33 -16 -10 -12 78 6 103 16 23 39 29 49 12z m112 -193 c8 -8 17 -32 20 -54 5
-35 2 -43 -22 -61 -49 -39 -181 -24 -198 22 -9 23 12 84 33 99 26 18 147 14
167 -6z m-217 -109 c11 -23 25 -35 49 -41 18 -4 31 -11 28 -14 -3 -3 -21 0
-40 6 -23 8 -39 22 -50 46 -9 19 -13 35 -9 35 4 0 14 -15 22 -32z m51 -69 c3
-5 20 -4 38 1 38 11 91 3 91 -14 0 -6 4 -5 9 3 6 8 16 11 27 7 16 -6 15 -10
-11 -32 -17 -15 -23 -23 -12 -20 9 3 17 1 17 -4 0 -6 -5 -10 -11 -10 -5 0 -7
-5 -4 -10 4 -6 11 -8 16 -5 5 4 9 -13 9 -39 0 -47 -12 -60 -42 -44 -19 9 -26
78 -8 78 6 0 10 5 10 10 0 6 -7 10 -16 10 -14 0 -41 -55 -36 -72 1 -5 -3 -8
-9 -8 -6 0 -9 7 -6 14 8 21 -20 74 -43 81 -11 4 -20 11 -20 17 0 7 -4 7 -12 0
-7 -5 -23 -13 -35 -16 -19 -6 -23 -3 -23 13 0 12 7 21 15 21 8 0 15 6 15 13 0
15 32 19 41 6z m29 -125 c0 -36 -3 -44 -18 -44 -10 0 -23 5 -30 12 -15 15 -16
82 -2 73 6 -3 10 -2 10 3 0 6 9 8 20 5 16 -4 20 -14 20 -49z"/>
<path d="M666 1204 c-6 -17 9 -44 25 -44 5 0 9 14 9 30 0 33 -23 42 -34 14z"/>
<path d="M762 1195 c2 -14 8 -26 13 -26 6 0 11 12 13 26 2 18 -1 25 -13 25
-12 0 -15 -7 -13 -25z"/>
<path d="M750 1380 c0 -16 5 -30 10 -30 6 0 10 14 10 30 0 17 -4 30 -10 30 -5
0 -10 -13 -10 -30z"/>
<path d="M2876 1401 c4 -9 0 -19 -11 -28 -12 -8 -14 -13 -6 -13 8 0 11 -6 7
-15 -8 -22 0 -18 17 9 14 21 14 26 1 42 -9 11 -12 13 -8 5z"/>
<path d="M2954 1334 c3 -9 6 -18 6 -20 0 -2 5 -4 11 -4 5 0 7 5 4 10 -3 6 2
10 12 10 15 0 16 2 3 10 -24 15 -43 12 -36 -6z"/>
<path d="M2450 1328 c0 -4 3 -8 8 -8 4 0 41 -2 82 -5 86 -5 76 1 -22 13 -38 5
-68 5 -68 0z"/>
<path d="M2835 1311 c-6 -5 -21 -11 -35 -13 l-25 -4 28 -8 c27 -8 57 5 57 25
0 12 -13 11 -25 0z"/>
<path d="M2622 1223 c-4 -69 6 -66 17 6 6 35 5 51 -3 51 -6 0 -12 -24 -14 -57z"/>
<path d="M2330 1230 c0 -5 7 -7 15 -3 9 3 24 -2 34 -11 10 -9 21 -13 24 -9 12
11 7 23 -7 17 -8 -3 -17 -1 -21 5 -8 14 -45 14 -45 1z"/>
<path d="M2734 1170 c-20 -22 -36 -30 -61 -30 -29 0 -33 -3 -33 -25 0 -28 12
-32 30 -10 7 9 28 23 46 31 19 9 34 20 34 25 0 12 57 12 64 0 6 -9 56 -3 56 8
-1 18 -20 28 -62 30 -41 2 -50 -2 -74 -29z"/>
<path d="M2363 1160 c-10 -27 -10 -29 10 -26 12 2 22 8 21 14 -3 36 -5 42 -12
42 -4 0 -13 -13 -19 -30z"/>
<path d="M2410 1146 c0 -20 5 -36 10 -36 6 0 10 13 10 29 0 17 -4 33 -10 36
-6 4 -10 -8 -10 -29z"/>
<path d="M2583 1131 c-10 -15 -9 -22 1 -30 10 -8 16 -5 24 15 15 31 15 34 -1
34 -7 0 -18 -9 -24 -19z"/>
<path d="M2970 1140 c-8 -5 -28 -10 -43 -10 -36 0 -67 -16 -67 -35 0 -8 -4
-15 -9 -15 -5 0 -12 -12 -16 -27 -3 -16 -13 -35 -21 -44 -13 -15 -13 -17 0
-22 16 -6 36 19 36 45 1 22 58 78 80 78 16 0 20 -7 20 -35 0 -19 4 -35 9 -35
16 0 18 24 4 50 -12 23 -11 25 12 28 14 2 25 10 25 18 0 16 -9 18 -30 4z"/>
<path d="M2476 1095 c-4 -15 0 -37 9 -54 8 -16 16 -52 18 -79 l2 -50 -87 -27
c-62 -19 -88 -32 -89 -44 0 -10 -2 -11 -6 -3 -8 20 -33 14 -33 -8 0 -24 26
-26 51 -4 9 8 19 11 22 7 9 -14 -6 -30 -43 -47 -19 -8 -44 -22 -56 -31 -16
-12 -23 -13 -37 -2 -25 17 -33 79 -14 99 17 16 121 33 139 22 6 -4 9 -1 6 7
-2 8 -19 15 -37 17 -23 2 -31 0 -26 -8 5 -8 -7 -10 -41 -8 -39 2 -51 8 -60 26
-10 20 -12 21 -18 7 -11 -31 -7 -43 14 -38 27 7 25 -9 -4 -44 -24 -29 -24 -29
-5 -41 11 -7 17 -17 14 -22 -3 -6 -1 -10 5 -10 6 0 16 -11 22 -25 8 -19 14
-22 20 -13 6 10 8 8 8 -4 0 -14 8 -18 35 -18 33 0 48 14 24 22 -17 6 0 34 28
47 14 6 34 9 45 5 17 -5 18 -3 9 14 -14 27 -14 35 2 26 6 -4 9 -4 5 1 -21 23
33 56 97 59 6 1 19 6 30 13 15 9 17 14 7 25 -6 8 -9 18 -5 21 14 15 23 6 23
-23 0 -20 5 -30 15 -30 8 0 15 5 15 11 0 5 -5 7 -12 3 -19 -12 -1 65 20 84 14
13 17 25 12 52 -6 34 -6 34 -14 10 -5 -14 -16 -30 -25 -37 -13 -9 -18 -6 -28
19 -17 39 -16 41 6 29 10 -6 21 -7 25 -4 8 9 -14 33 -30 33 -7 0 -18 9 -24 20
-14 27 -27 25 -34 -5z"/>
<path d="M2270 1069 c0 -4 -9 -6 -19 -4 -13 2 -26 -6 -36 -22 -10 -14 -12 -22
-6 -19 14 9 14 4 1 -28 -5 -14 -6 -26 -1 -26 5 0 12 16 15 35 8 41 30 50 107
43 66 -7 84 -26 84 -87 0 -42 2 -46 13 -30 17 24 5 99 -17 107 -9 3 -21 12
-27 20 -11 16 -114 25 -114 11z"/>
<path d="M2674 1040 c-9 -21 -11 -21 -26 -7 -14 15 -17 15 -22 1 -10 -25 -7
-31 15 -37 19 -5 21 -10 15 -51 -6 -38 -4 -46 8 -46 12 0 16 11 16 44 0 50 10
61 44 52 18 -4 26 -17 35 -52 7 -25 9 -54 6 -64 -3 -10 6 -35 22 -59 15 -24
29 -38 31 -32 2 7 35 11 80 12 92 1 85 5 -21 14 -82 7 -108 25 -74 50 21 15
22 35 3 35 -17 0 -26 22 -26 66 0 31 -4 36 -44 54 -24 10 -46 24 -48 30 -2 7
-8 3 -14 -10z"/>
<path d="M2263 1008 c4 -10 2 -18 -3 -18 -6 0 -10 -9 -10 -21 0 -28 24 -19 28
10 2 13 -2 28 -9 35 -9 8 -11 7 -6 -6z"/>
<path d="M2341 988 c8 -15 8 -19 -1 -13 -8 5 -11 0 -8 -16 4 -33 22 -27 29 10
5 23 2 30 -12 34 -16 4 -17 2 -8 -15z"/>
<path d="M225 980 c-9 -15 -12 -130 -4 -130 4 0 9 32 11 70 2 39 2 70 1 70 -1
0 -5 -5 -8 -10z"/>
<path d="M296 953 c6 -38 19 -61 28 -52 8 8 -16 89 -26 89 -5 0 -6 -16 -2 -37z"/>
<path d="M340 959 c0 -14 7 -34 15 -45 14 -18 15 -17 9 16 -6 43 -24 64 -24
29z"/>
<path d="M1850 949 c0 -5 4 -8 9 -5 20 13 41 -7 41 -38 0 -24 3 -27 10 -16 14
21 12 36 -6 54 -17 18 -54 22 -54 5z"/>
<path d="M2700 921 c0 -16 5 -33 10 -36 6 -4 10 6 10 24 0 16 -4 33 -10 36 -6
4 -10 -6 -10 -24z"/>
<path d="M525 900 c-3 -11 -11 -20 -16 -20 -5 0 -10 -15 -10 -32 -1 -19 -3
-25 -6 -13 -2 11 -18 28 -35 38 -34 19 -46 17 -26 -4 50 -52 68 -83 68 -115 0
-29 3 -34 25 -34 18 0 23 4 19 15 -4 8 -9 15 -13 15 -3 0 -7 24 -9 53 -3 47 0
55 20 65 13 6 17 11 10 11 -7 1 -10 6 -7 11 5 8 11 7 21 -1 17 -14 19 2 2 19
-18 18 -36 15 -43 -8z"/>
<path d="M1657 914 c-15 -15 -6 -24 24 -24 20 0 29 4 27 13 -5 14 -40 21 -51
11z"/>
<path d="M1940 898 c0 -15 -4 -30 -10 -33 -16 -10 -12 -42 6 -49 36 -14 44 19
19 75 -14 33 -14 33 -15 7z"/>
<path d="M1432 884 c3 -16 3 -23 1 -16 -3 6 -11 12 -20 12 -10 0 -13 -6 -9
-16 3 -9 6 -18 6 -20 0 -2 9 -4 20 -4 15 0 20 7 20 29 0 17 -5 33 -11 37 -8 4
-10 -3 -7 -22z"/>
<path d="M2 844 c1 -40 3 -48 5 -24 3 19 9 40 14 46 6 7 4 16 -6 24 -13 11
-15 5 -13 -46z"/>
<path d="M1471 883 c0 -10 4 -27 9 -38 7 -16 9 -13 9 18 1 20 -3 37 -9 37 -5
0 -10 -8 -9 -17z"/>
<path d="M935 856 c-8 -42 -1 -56 25 -49 11 3 17 10 13 16 -3 5 -6 21 -7 35
-2 39 -24 38 -31 -2z"/>
<path d="M1040 868 c0 -47 58 -124 78 -104 3 3 0 6 -6 6 -7 0 -12 9 -12 19 0
11 -4 23 -10 26 -17 11 -11 25 11 25 11 0 17 5 14 10 -3 6 -16 10 -29 10 -12
0 -27 5 -34 12 -9 9 -12 8 -12 -4z"/>
<path d="M154 854 c3 -9 6 -25 6 -35 0 -27 16 -16 28 21 10 28 9 30 -15 30
-19 0 -24 -4 -19 -16z"/>
<path d="M1544 834 c4 -41 30 -74 46 -58 8 8 6 15 -5 24 -18 15 -20 40 -3 40
12 0 -21 29 -34 30 -4 0 -6 -16 -4 -36z"/>
<path d="M877 854 c-4 -4 -7 -24 -7 -45 0 -21 -6 -39 -12 -42 -7 -2 -10 -7 -7
-11 3 -4 16 1 28 11 19 15 21 23 14 56 -5 21 -12 35 -16 31z"/>
<path d="M1269 846 c6 -8 11 -18 10 -22 -1 -5 -1 -18 0 -29 1 -17 3 -17 15 -5
21 22 9 70 -16 70 -16 0 -18 -3 -9 -14z"/>
<path d="M2625 823 c-11 -3 -24 -9 -29 -14 -5 -4 8 -4 29 2 22 6 40 7 44 2 3
-5 21 -15 39 -22 26 -11 32 -19 34 -45 0 -17 2 -37 2 -45 1 -15 25 -28 27 -14
0 4 2 16 4 25 2 10 -1 20 -6 24 -5 3 -9 14 -9 24 0 23 -66 71 -95 69 -11 -1
-29 -3 -40 -6z"/>
<path d="M60 799 c7 -13 19 -32 27 -41 16 -18 10 -54 -7 -43 -6 3 -7 -1 -4 -9
4 -10 18 -16 36 -16 25 0 29 -3 25 -20 -4 -16 0 -20 22 -20 39 0 66 -32 51
-59 -15 -29 -10 -93 7 -87 10 4 11 1 3 -14 -5 -10 -10 -27 -10 -38 0 -16 6
-19 30 -16 17 2 30 -1 30 -6 0 -6 -1 -10 -2 -11 -2 0 -23 -2 -47 -5 -37 -4
-43 -3 -38 10 6 14 -7 16 -90 16 -109 0 -120 -10 -16 -15 93 -4 93 -4 93 -12
0 -5 -38 -8 -85 -7 -47 1 -85 -3 -85 -7 0 -8 141 -16 180 -10 21 3 31 2 67 -5
19 -4 52 0 80 10 27 8 71 19 98 23 29 4 41 8 28 11 -26 4 -39 37 -23 57 9 11
9 18 -2 29 -13 12 -16 11 -26 -5 -8 -12 -8 -19 -2 -19 5 0 10 -8 10 -18 0 -19
-45 -46 -60 -37 -5 3 -11 -4 -15 -15 -8 -24 -40 -27 -49 -4 -10 25 -7 74 4 74
6 0 10 7 10 16 0 16 -25 15 -25 -2 -2 -25 -18 -55 -28 -51 -13 5 -13 7 -3 50
6 26 5 28 -16 22 -13 -4 -18 -3 -11 2 6 4 13 24 15 43 3 31 7 36 38 41 27 5
29 7 10 8 -24 2 -75 31 -53 31 7 0 9 9 5 22 -3 13 -7 17 -10 10 -3 -9 -8 -8
-18 5 -12 15 -13 15 -8 2 8 -24 -11 -32 -30 -13 -9 8 -16 19 -16 22 0 4 -10
19 -22 33 -13 14 -30 38 -38 54 -8 15 -21 30 -28 33 -11 4 -12 0 -2 -19z"/>
<path d="M410 812 c0 -4 9 -13 19 -19 24 -15 35 -62 22 -95 -11 -29 -75 -56
-129 -54 -26 1 -30 -1 -17 -10 34 -25 151 22 162 64 7 31 -4 82 -24 104 -17
19 -33 24 -33 10z"/>
<path d="M2020 796 c0 -14 5 -28 10 -31 6 -4 10 7 10 24 0 17 -4 31 -10 31 -5
0 -10 -11 -10 -24z"/>
<path d="M2461 810 c-15 -11 -39 -58 -33 -64 3 -4 5 -23 3 -43 -2 -23 1 -33 8
-29 6 4 11 22 12 39 2 58 13 82 39 82 13 0 25 5 27 11 4 12 -41 15 -56 4z"/>
<path d="M2541 786 c-7 -8 -11 -29 -9 -47 2 -26 8 -32 30 -35 15 -1 30 2 33 7
3 5 0 6 -8 3 -8 -3 -18 0 -22 6 -6 9 -10 9 -16 -1 -6 -9 -9 -2 -9 22 0 19 5
40 12 47 7 7 9 12 6 12 -3 0 -11 -6 -17 -14z"/>
<path d="M2160 765 c-11 -30 -25 -34 -17 -5 3 13 0 20 -9 20 -22 0 -17 -48 6
-60 22 -12 23 -11 34 43 8 34 -1 35 -14 2z"/>
<path d="M2481 734 c-7 -27 -9 -66 -5 -92 l7 -46 12 35 c7 21 8 41 2 52 -4 10
-6 36 -2 58 9 54 0 49 -14 -7z"/>
<path d="M303 725 c0 -15 34 -31 45 -21 5 6 -26 35 -39 36 -3 0 -6 -7 -6 -15z"/>
<path d="M1337 722 c-8 -9 -20 -30 -26 -45 -9 -23 -8 -32 5 -44 14 -15 16 -13
13 18 -4 41 7 61 41 76 23 11 23 12 4 12 -11 1 -28 -7 -37 -17z"/>
<path d="M1487 724 c43 -19 59 -51 54 -115 -1 -20 -48 -41 -73 -33 -14 4 -18
2 -14 -5 4 -6 3 -11 -3 -11 -5 0 -13 5 -17 11 -3 6 -19 9 -34 6 -14 -3 -39 1
-54 8 -20 11 -26 11 -24 2 7 -21 80 -39 140 -35 42 3 62 10 82 29 29 27 30 30
16 80 -13 48 -45 79 -78 78 l-27 -1 32 -14z"/>
<path d="M2096 718 c-4 -10 -1 -26 7 -40 14 -21 13 -30 -3 -93 -22 -82 -25
-108 -10 -85 8 12 10 12 11 -5 0 -14 3 -11 10 10 5 17 7 42 4 56 -7 30 10 83
19 59 3 -8 7 -30 8 -49 2 -19 9 -36 17 -39 10 -3 12 4 7 29 -3 19 -3 27 1 19
3 -8 14 -27 24 -41 10 -14 16 -28 14 -31 -3 -2 48 -5 112 -7 64 -1 115 0 113
3 -3 2 -50 7 -104 9 l-99 6 -29 46 c-16 25 -26 50 -23 56 4 5 3 9 -2 8 -20 -3
-27 2 -13 11 10 7 11 10 2 10 -7 0 -17 12 -22 26 -6 14 -14 23 -19 19 -5 -3
-11 5 -14 17 -3 19 -5 20 -11 6z"/>
<path d="M1751 694 c-28 -35 -29 -104 -2 -128 11 -10 24 -15 30 -12 5 4 12 2
15 -3 3 -5 19 -8 35 -7 17 1 27 -2 24 -8 -4 -5 7 -7 27 -2 41 8 47 13 32 28
-7 7 -12 8 -12 2 0 -10 -120 -1 -139 10 -4 3 -9 30 -10 60 -2 62 12 78 63 69
20 -4 27 -2 22 6 -13 21 -63 12 -85 -15z"/>
<path d="M1880 708 c48 -13 70 -36 70 -70 0 -15 5 -28 11 -28 6 0 8 9 4 20 -4
12 -2 20 4 20 8 0 7 7 -1 20 -13 21 -77 51 -106 49 -9 0 -1 -5 18 -11z"/>
<path d="M1103 678 c7 -21 15 -38 19 -38 14 0 8 28 -11 51 l-19 24 11 -37z"/>
<path d="M1251 657 c-1 -25 7 -50 20 -68 11 -16 17 -29 12 -29 -4 -1 8 -8 27
-17 19 -9 38 -15 43 -15 4 1 7 -2 7 -8 0 -5 7 -7 15 -4 19 8 9 24 -14 24 -34
0 -89 62 -99 110 l-10 45 -1 -38z"/>
<path d="M1384 672 c18 -8 18 -9 2 -15 -21 -8 -18 -52 4 -52 10 0 15 11 15 35
0 27 -4 35 -20 37 -19 3 -19 3 -1 -5z"/>
<path d="M1467 669 c9 -9 10 -16 2 -26 -13 -15 -5 -43 11 -43 6 0 9 4 6 9 -4
5 -2 11 4 13 5 1 11 14 12 28 2 20 -2 26 -22 28 -20 3 -23 1 -13 -9z"/>
<path d="M2230 665 c9 -11 34 -15 94 -15 l82 0 19 -37 c14 -28 20 -33 23 -20
5 22 -35 87 -54 87 -8 0 -14 -5 -14 -11 0 -8 -4 -8 -12 -2 -15 11 -65 10 -92
-2 -13 -6 -21 -5 -24 3 -2 7 -11 12 -19 12 -13 0 -13 -3 -3 -15z"/>
<path d="M2690 667 c0 -12 -13 -17 -52 -20 l-53 -3 62 -2 c64 -2 83 7 58 28
-12 10 -15 10 -15 -3z"/>
<path d="M909 643 c-11 -30 -6 -53 13 -53 8 0 13 13 14 30 1 17 -4 30 -10 30
-6 0 -4 5 4 10 10 7 11 10 2 10 -7 0 -17 -12 -23 -27z"/>
<path d="M1072 654 c14 -4 15 -9 6 -23 -14 -22 -3 -60 13 -44 18 18 7 68 -16
70 -15 1 -16 1 -3 -3z"/>
<path d="M980 625 c-16 -19 -5 -47 17 -43 23 4 30 38 8 38 -9 0 -13 5 -10 10
9 15 -1 12 -15 -5z"/>
<path d="M1877 629 c-21 -13 -13 -29 15 -29 16 0 18 3 9 14 -9 11 -9 15 1 19
7 3 9 6 3 6 -5 0 -18 -4 -28 -10z"/>
<path d="M2560 628 c33 -18 36 -42 9 -69 -12 -12 -15 -20 -8 -17 18 5 51 70
41 79 -4 4 -20 11 -37 14 l-30 7 25 -14z"/>
<path d="M395 620 c-17 -7 -18 -9 -2 -9 9 -1 22 -12 28 -25 12 -27 39 -25 39
3 0 12 -2 13 -9 3 -7 -11 -9 -11 -14 2 -4 9 -1 16 6 16 8 0 6 4 -3 10 -17 11
-19 11 -45 0z"/>
<path d="M2670 620 c-8 -5 -10 -10 -5 -10 6 0 19 -18 29 -40 11 -22 22 -40 26
-40 19 0 17 16 -6 43 -19 23 -22 32 -13 43 14 17 -7 20 -31 4z"/>
<path d="M2720 615 c0 -2 4 -15 10 -29 9 -25 40 -37 40 -16 0 6 -4 10 -10 10
-5 0 -10 6 -10 14 0 8 -7 16 -15 20 -8 3 -15 4 -15 1z"/>
<path d="M1164 585 c-3 -14 -1 -31 5 -39 9 -11 8 -18 -4 -30 -18 -18 -25 -65
-10 -66 5 0 10 11 11 25 0 16 15 39 37 59 21 19 37 41 37 50 0 10 -4 14 -10
11 -5 -3 -10 -13 -10 -21 0 -8 -5 -14 -11 -14 -6 0 -8 9 -4 23 6 20 5 21 -8 5
-19 -24 -26 -23 -20 2 3 11 3 20 -1 20 -3 0 -8 -11 -12 -25z"/>
<path d="M2471 545 c1 -27 -4 -63 -10 -78 -14 -37 -14 -37 9 -37 11 0 20 -4
20 -9 0 -12 251 -14 270 -1 17 11 19 10 -50 13 -29 2 -36 6 -38 27 -5 36 -22
50 -22 18 0 -33 -25 -32 -51 3 -21 27 -26 19 -7 -11 15 -24 8 -31 -32 -33 -20
-1 -35 4 -40 13 -4 8 -12 25 -19 38 -15 28 1 54 27 46 12 -4 11 -2 -3 7 -11 7
-28 22 -37 33 -17 20 -18 20 -17 -29z"/>
<path d="M486 573 c-10 -11 -7 -53 5 -53 6 0 9 -7 5 -15 -5 -13 12 -15 114
-15 69 0 121 4 125 10 4 7 -24 10 -77 10 -46 0 -96 2 -111 3 -29 2 -53 29 -42
46 6 11 -9 23 -19 14z"/>
<path d="M927 571 c-18 -7 -18 -8 -1 -21 19 -17 122 -23 144 -10 28 17 -1 24
-48 11 -30 -8 -48 -9 -50 -2 -2 5 -11 7 -19 4 -12 -5 -15 -2 -10 10 3 9 5 17
4 16 -1 0 -10 -4 -20 -8z"/>
<path d="M2225 563 c14 -15 215 -27 215 -13 0 6 -31 10 -79 10 -43 0 -94 3
-112 6 -23 5 -31 3 -24 -3z"/>
<path d="M1680 522 c0 -6 -10 -8 -22 -5 -13 3 -21 4 -18 2 3 -2 15 -12 26 -22
21 -17 22 -17 27 3 3 11 1 23 -4 26 -5 3 -9 1 -9 -4z"/>
<path d="M1257 498 c4 -18 3 -20 -6 -8 -9 13 -11 13 -11 0 0 -17 19 -40 32
-40 14 0 9 47 -6 59 -12 10 -14 8 -9 -11z"/>
<path d="M860 501 c-8 -6 -18 -7 -22 -5 -9 6 -13 -72 -9 -148 l2 -48 -55 0
c-31 0 -56 -4 -56 -9 0 -16 -148 -25 -165 -11 -11 9 -40 10 -110 5 -100 -7
-134 -26 -40 -22 30 1 55 5 55 8 0 4 19 3 43 -3 40 -9 426 -3 436 7 2 3 -3 5
-11 5 -21 0 -29 22 -23 63 4 25 3 28 -4 12 -5 -11 -10 -30 -10 -43 -1 -17 -6
-22 -18 -20 -14 3 -18 14 -17 51 0 26 -3 47 -8 47 -4 0 -8 6 -8 14 0 8 7 13
16 12 9 0 19 6 21 14 3 11 2 12 -5 2 -6 -9 -11 -6 -20 13 -11 24 -10 25 13 19
16 -4 25 -2 25 6 0 6 -4 9 -9 6 -5 -4 -7 3 -4 14 6 22 4 24 -17 11z"/>
<path d="M1500 496 c0 -23 18 -56 30 -56 16 0 12 20 -10 47 -16 20 -20 22 -20
9z"/>
<path d="M1973 494 c2 -12 0 -29 -5 -38 -6 -10 -5 -16 2 -16 5 0 10 6 10 14 0
8 5 16 10 18 6 2 4 11 -5 23 -16 20 -16 20 -12 -1z"/>
<path d="M1576 485 c-10 -26 -7 -35 9 -35 8 0 15 7 15 15 0 8 0 18 1 22 1 15
-19 13 -25 -2z"/>
<path d="M1310 465 c-18 -20 -20 -25 -8 -25 9 0 18 -3 21 -7 2 -5 2 -2 1 5 -2
7 3 15 11 18 16 6 21 34 7 34 -5 0 -19 -11 -32 -25z"/>
<path d="M2038 466 c-61 -22 -28 -31 120 -32 81 -1 172 -4 202 -7 49 -4 56 -2
57 14 1 11 -3 19 -8 19 -6 0 -7 -4 -4 -10 8 -13 -13 -12 -175 5 -95 10 -136
11 -141 3 -4 -7 -10 -6 -15 4 -7 11 -15 12 -36 4z"/>
<path d="M2315 470 c-18 -8 -18 -9 5 -9 14 0 43 4 65 8 l40 9 -45 0 c-25 0
-54 -3 -65 -8z"/>
<path d="M1710 406 c-5 -13 -6 -33 -3 -45 5 -19 1 -21 -42 -21 -39 0 -46 -3
-41 -16 3 -9 6 -19 6 -24 0 -5 97 -8 215 -7 118 1 210 4 205 5 -6 2 -10 10
-10 18 0 17 -13 17 -60 0 -22 -8 -46 -10 -65 -5 -48 13 -105 17 -111 8 -9 -15
-51 -10 -68 7 -17 16 -23 79 -7 70 5 -4 7 3 4 14 -7 26 -12 25 -23 -4z"/>
<path d="M1266 356 l6 -57 -29 7 c-26 6 -27 5 -8 -8 31 -22 75 -36 135 -42 30
-3 70 -8 89 -11 18 -3 40 -1 50 5 12 7 9 9 -14 7 -25 -2 -29 1 -27 17 3 18 2
18 -13 2 -18 -18 -25 -19 -49 -10 -11 4 -16 19 -16 50 0 36 -3 44 -19 44 -15
0 -18 -7 -17 -37 1 -36 -1 -38 -31 -41 -29 -3 -33 0 -33 20 0 13 6 30 13 37
10 10 8 14 -6 22 -9 6 -15 14 -12 18 2 5 -2 14 -10 21 -13 11 -14 5 -9 -44z"/>
<path d="M1543 403 c-19 -7 -16 -23 5 -23 9 0 29 -7 45 -14 15 -8 27 -10 27
-5 0 5 -8 12 -17 16 -10 3 -25 12 -33 18 -8 7 -21 10 -27 8z"/>
<path d="M1905 401 c-2 -5 4 -11 15 -14 11 -3 20 -13 20 -22 0 -14 3 -15 15
-5 8 7 15 16 15 20 0 12 -59 30 -65 21z"/>
<path d="M2240 391 c0 -12 6 -21 16 -21 9 0 14 7 12 17 -5 25 -28 28 -28 4z"/>
<path d="M1400 375 c0 -23 2 -25 15 -15 8 6 23 9 34 5 16 -5 20 -3 15 9 -3 9
-12 16 -19 16 -7 0 -20 3 -29 6 -12 5 -16 0 -16 -21z"/>
<path d="M537 383 c-4 -3 -7 -25 -7 -47 0 -30 3 -37 10 -26 5 8 10 25 10 38 0
12 4 22 9 22 5 0 11 -10 13 -22 2 -13 6 -22 11 -20 4 1 34 2 68 2 56 0 60 1
57 22 -3 20 -8 21 -70 19 -38 -1 -69 2 -73 8 -7 12 -19 14 -28 4z"/>
<path d="M1054 356 c-3 -19 -3 -39 1 -45 3 -6 2 -11 -4 -11 -5 0 -15 8 -20 18
-6 9 -11 12 -11 5 0 -6 -13 -14 -30 -18 -58 -13 -41 -25 34 -25 41 0 78 5 81
10 3 6 -3 10 -15 10 -27 0 -36 25 -23 61 6 16 7 29 3 29 -5 0 -12 -15 -16 -34z"/>
<path d="M1143 335 c-10 -22 -9 -25 9 -25 19 0 88 36 88 46 0 2 -19 4 -42 4
-36 0 -45 -4 -55 -25z"/>
<path d="M1536 318 c8 -50 11 -55 25 -41 17 17 7 77 -14 81 -15 3 -17 -2 -11
-40z"/>
<path d="M601 303 c-6 -10 -11 -12 -11 -5 0 17 -20 15 -20 -3 0 -8 9 -15 20
-15 11 0 20 7 20 15 0 9 9 15 25 15 14 0 25 -4 25 -10 0 -5 9 -10 20 -10 11 0
20 7 20 15 0 23 -86 21 -99 -2z"/>
<path d="M831 147 c14 -7 33 -18 43 -26 14 -12 16 -11 16 7 0 20 -26 32 -65
31 -17 -1 -16 -2 6 -12z"/>
<path d="M2640 79 c-30 -5 -26 -7 23 -8 31 0 57 1 57 3 0 8 -47 11 -80 5z"/>
</g>
</svg>
