<?xml version="1.0" standalone="no"?>
<!DOCTYPE svg PUBLIC "-//W3C//DTD SVG 20010904//EN"
 "http://www.w3.org/TR/2001/REC-SVG-20010904/DTD/svg10.dtd">
<svg version="1.0" xmlns="http://www.w3.org/2000/svg"
 width="800.000000pt" height="180.000000pt" viewBox="0 0 800.000000 180.000000"
 preserveAspectRatio="xMidYMid meet">

<g transform="translate(0.000000,180.000000) scale(0.100000,-0.100000)"
fill="#000000" stroke="none">
<path d="M1110 1588 c-76 -51 -134 -232 -135 -418 l0 -105 -70 -70 c-197 -198
-217 -492 -44 -665 97 -97 230 -140 437 -140 227 0 372 49 476 160 62 68 83
120 93 235 13 159 -41 311 -148 409 l-60 56 12 62 c7 35 13 124 13 198 0 117
-3 143 -23 192 -29 75 -68 108 -128 108 -39 0 -50 -5 -78 -34 -51 -55 -93
-191 -110 -358 -5 -51 -10 -68 -22 -68 -12 0 -14 13 -8 83 21 253 -85 436
-205 355z m459 -23 c42 -21 73 -101 79 -207 4 -76 -11 -258 -25 -294 -3 -9
-16 -7 -51 11 -52 25 -98 40 -154 50 -37 6 -38 7 -38 49 0 53 24 192 45 262
18 62 52 115 85 131 31 16 26 16 59 -2z m-354 -28 c18 -18 38 -51 44 -72 17
-56 24 -210 14 -275 l-8 -55 -53 -7 c-46 -7 -122 -30 -174 -52 -14 -6 -18 0
-24 40 -19 132 39 369 107 432 32 30 56 27 94 -11z m307 -672 c-5 -29 -1 -30
38 -10 27 14 30 14 30 -1 0 -14 8 -15 48 -10 45 6 46 6 22 -8 l-25 -15 29 -1
c21 0 27 -4 22 -15 -3 -9 1 -18 9 -21 8 -4 13 -10 10 -14 -3 -5 10 -16 30 -26
37 -17 49 -40 15 -29 -30 9 -24 -10 8 -25 22 -11 24 -14 10 -17 -23 -6 -23
-11 5 -35 16 -14 17 -18 5 -14 -28 8 -29 -9 -3 -34 29 -27 33 -50 9 -50 -10 0
-14 -5 -10 -15 3 -8 9 -22 12 -30 5 -11 2 -14 -11 -8 -16 6 -17 2 -12 -31 5
-33 4 -36 -12 -31 -15 5 -19 -2 -24 -37 -6 -47 -24 -64 -104 -103 -79 -38
-182 -56 -323 -56 -193 -1 -310 35 -404 121 -41 38 -86 109 -101 160 l-7 25
29 -28 c44 -41 49 -19 6 25 -41 42 -41 54 1 33 l29 -15 -7 32 c-18 82 -19 101
-8 94 7 -4 12 -14 12 -22 0 -8 5 -14 10 -14 6 0 10 23 10 52 0 49 1 51 19 34
17 -16 19 -16 25 6 3 13 6 34 6 47 0 20 3 22 26 17 22 -6 25 -4 20 10 -8 20 9
34 43 34 16 0 21 4 17 15 -7 19 -4 19 40 0 38 -16 54 -13 54 11 0 19 7 18 43
-8 23 -17 32 -19 35 -8 3 8 14 -2 28 -25 19 -32 24 -36 30 -22 6 16 8 16 21
-3 15 -21 15 -21 35 6 15 18 23 22 28 13 6 -9 17 -5 40 15 28 23 34 25 44 12
9 -13 17 -11 51 14 49 36 53 36 47 5z"/>
<path d="M1500 1328 c-11 -24 -20 -60 -20 -80 0 -39 27 -118 40 -118 16 0 40
70 40 119 0 48 -21 121 -35 121 -3 0 -15 -19 -25 -42z"/>
<path d="M1124 1295 c-18 -45 -18 -108 1 -145 9 -17 18 -30 20 -30 15 0 45 70
45 103 0 43 -24 107 -40 107 -6 0 -18 -16 -26 -35z"/>
<path d="M1550 751 c-5 -11 -30 -27 -54 -36 -40 -16 -47 -16 -75 -2 -32 16
-42 8 -17 -12 13 -11 13 -17 0 -46 -18 -44 -18 -126 0 -169 17 -40 60 -76 93
-76 41 0 91 27 107 59 24 45 20 127 -8 187 -13 28 -29 55 -35 58 -7 5 -6 15 5
32 10 14 12 24 6 24 -6 0 -16 -9 -22 -19z m-70 -87 c-24 -62 -4 -160 40 -197
33 -28 30 -37 -15 -37 -60 0 -95 54 -95 146 0 69 22 114 55 114 22 0 24 -2 15
-26z"/>
<path d="M1010 741 c0 -5 8 -19 19 -32 18 -22 18 -23 -5 -56 -66 -98 -17 -263
78 -263 46 0 96 34 115 77 17 42 12 110 -14 175 -16 41 -14 48 22 61 6 3 7 7
4 11 -3 3 -22 -1 -42 -9 -59 -24 -104 -20 -139 15 -31 32 -38 35 -38 21z m84
-78 c-4 -10 -9 -50 -12 -89 -4 -65 -2 -73 23 -102 15 -18 37 -32 48 -32 22 -1
22 -1 3 -15 -23 -17 -69 -20 -95 -5 -24 12 -51 80 -51 126 0 35 21 96 41 121
6 7 20 13 31 13 15 0 18 -4 12 -17z"/>
<path d="M1685 533 c-61 -141 -169 -212 -337 -221 -190 -10 -373 66 -423 178
-10 22 -22 40 -28 40 -5 0 -6 -8 -1 -17 4 -10 8 -45 9 -78 l0 -60 38 -3 c33
-3 38 -6 35 -25 -3 -20 1 -22 44 -22 43 0 51 -4 79 -38 l31 -38 24 22 c22 20
25 21 41 7 42 -36 62 -40 93 -18 28 20 32 20 52 6 31 -22 51 -20 78 9 17 19
27 22 41 15 34 -19 56 -11 73 25 16 32 20 35 61 35 41 0 45 2 45 24 0 19 7 26
31 31 29 7 30 9 24 41 -6 33 -5 34 25 34 28 0 31 3 24 23 -3 12 -11 27 -16 34
-5 6 -6 23 -2 37 12 50 -12 25 -41 -41z m35 -23 c0 -13 -5 -18 -14 -14 -8 3
-12 12 -9 20 8 21 23 17 23 -6z m-40 -70 c0 -11 -7 -20 -15 -20 -17 0 -18 2
-9 24 9 23 24 20 24 -4z m-725 -48 c-33 -4 -39 1 -30 28 l7 22 25 -24 25 -23
-27 -3z m675 -1 c0 -13 -29 -35 -37 -28 -7 8 15 37 28 37 5 0 9 -4 9 -9z
m-606 -27 c24 -9 19 -24 -9 -24 -18 0 -23 4 -19 15 7 17 7 17 28 9z m122 -50
c20 -5 22 -9 13 -20 -17 -20 -32 -17 -53 13 -18 24 -18 26 -2 20 10 -4 29 -10
42 -13z m367 -5 c-6 -6 -19 -9 -29 -6 -17 3 -16 5 6 14 28 12 39 8 23 -8z
m-244 -18 c21 -6 22 -8 7 -20 -13 -11 -20 -11 -41 3 -14 9 -25 19 -25 21 0 7
29 5 59 -4z m141 0 c0 -14 -37 -24 -52 -15 -9 6 -5 10 12 15 36 10 40 10 40 0z"/>
<path d="M1261 496 c-29 -35 34 -80 78 -56 25 13 28 55 5 64 -28 11 -71 6 -83
-8z"/>
<path d="M830 451 c0 -10 25 -21 48 -21 15 1 14 3 -2 15 -22 17 -46 20 -46 6z"/>
<path d="M3413 1113 l-101 -4 -120 -302 c-65 -166 -122 -311 -126 -323 -6 -20
-2 -22 106 -31 62 -6 114 -10 115 -9 2 1 10 38 18 82 26 130 19 124 129 124
82 0 95 -2 100 -17 3 -10 12 -57 22 -104 l16 -87 87 5 c47 3 102 8 123 12 l36
6 -122 325 -121 325 -30 1 c-17 0 -76 -1 -132 -3z m52 -270 c22 -42 42 -81 43
-85 2 -4 -33 -8 -78 -8 -74 0 -82 2 -76 18 32 86 60 152 65 152 3 0 24 -35 46
-77z"/>
<path d="M3995 1113 c-16 -1 -54 -6 -82 -9 l-53 -5 0 -314 c0 -173 4 -316 8
-319 5 -3 70 -11 144 -17 297 -26 490 32 514 156 16 86 -24 152 -120 195 -51
23 -57 28 -38 34 58 19 80 107 43 176 -42 80 -227 126 -416 103z m239 -133
c31 -11 49 -44 41 -71 -10 -32 -80 -59 -152 -59 l-63 0 0 63 c0 35 3 67 7 70
10 10 138 8 167 -3z m56 -256 c45 -26 56 -47 45 -80 -17 -47 -65 -67 -176 -72
l-99 -5 0 93 0 93 99 -5 c73 -4 107 -10 131 -24z"/>
<path d="M5142 1110 c-68 -4 -125 -9 -127 -11 -2 -2 8 -44 22 -94 32 -117 37
-273 10 -322 -49 -90 -183 -82 -223 13 -25 59 -13 268 21 376 6 17 -2 18 -128
18 l-134 0 -7 -32 c-15 -74 -18 -216 -7 -285 33 -191 139 -298 322 -325 146
-22 265 23 335 126 57 84 76 160 82 328 5 169 -1 219 -26 216 -9 0 -72 -4
-140 -8z"/>
<path d="M5595 1113 c-16 -1 -54 -6 -82 -9 l-53 -5 0 -314 c0 -173 4 -316 8
-319 5 -3 70 -11 144 -17 297 -26 490 32 514 156 16 86 -24 152 -120 195 -51
23 -57 28 -38 34 58 19 80 107 43 176 -42 80 -227 126 -416 103z m239 -133
c33 -12 48 -42 37 -73 -13 -33 -77 -57 -151 -57 l-60 0 0 63 c0 35 3 67 7 70
10 10 138 8 167 -3z m56 -256 c45 -26 56 -47 45 -80 -17 -47 -65 -67 -176 -72
l-99 -5 0 93 0 93 99 -5 c73 -4 107 -10 131 -24z"/>
<path d="M6742 1110 c-68 -4 -125 -9 -127 -11 -2 -2 8 -44 22 -94 32 -117 37
-273 10 -322 -49 -90 -183 -82 -223 13 -25 59 -13 268 21 376 6 17 -2 18 -128
18 l-134 0 -7 -32 c-15 -74 -18 -216 -7 -285 33 -194 142 -301 332 -326 142
-19 257 26 325 128 57 83 76 159 82 327 5 169 -1 219 -26 216 -9 0 -72 -4
-140 -8z"/>
<path d="M2632 1100 c-51 -5 -95 -10 -97 -12 -3 -2 -7 -144 -11 -315 l-7 -311
179 4 c98 3 207 7 242 10 62 6 63 6 58 32 -3 15 -8 53 -11 86 l-7 58 -120 -7
-120 -7 7 236 c6 197 5 236 -6 235 -8 -1 -56 -5 -107 -9z"/>
</g>
</svg>
