<?xml version="1.0" standalone="no"?>
<!DOCTYPE svg PUBLIC "-//W3C//DTD SVG 20010904//EN"
 "http://www.w3.org/TR/2001/REC-SVG-20010904/DTD/svg10.dtd">
<svg version="1.0" xmlns="http://www.w3.org/2000/svg"
 width="1160.000000pt" height="700.000000pt" viewBox="0 0 1160.000000 700.000000"
 preserveAspectRatio="xMidYMid meet">

<g transform="translate(0.000000,700.000000) scale(0.100000,-0.100000)"
fill="#000000" stroke="none">
<path d="M0 6830 c0 -153 6 -191 24 -161 3 4 38 18 78 30 82 25 198 70 213 83
5 4 16 8 25 8 8 0 33 12 55 27 26 18 54 28 81 29 23 1 64 9 92 18 57 19 148
24 162 10 5 -5 13 -31 16 -57 l7 -48 -65 -62 c-77 -75 -129 -139 -153 -189 -9
-21 -21 -38 -26 -38 -5 0 -9 -4 -9 -10 0 -5 -13 -37 -30 -71 -16 -34 -33 -77
-36 -96 -4 -19 -18 -65 -31 -101 -28 -78 -65 -196 -93 -299 -19 -71 -26 -163
-14 -176 8 -8 77 39 124 84 19 17 49 38 66 45 36 15 124 111 124 134 0 9 5 21
11 27 19 19 -7 23 -57 8 -27 -8 -52 -15 -56 -15 -3 0 -8 27 -10 59 -1 33 0 57
5 54 4 -2 11 7 16 20 8 21 39 61 116 150 8 9 15 23 15 30 0 6 32 59 70 116 39
56 70 106 70 110 0 4 19 14 41 21 37 13 45 12 77 -6 25 -13 39 -29 46 -51 5
-18 12 -33 17 -33 4 0 18 15 30 33 13 17 27 34 31 35 4 2 8 10 8 17 0 20 35
36 57 28 35 -13 48 -37 55 -97 25 -228 63 -455 92 -546 19 -59 23 -89 19 -140
-3 -49 -1 -70 10 -85 9 -11 18 -18 20 -15 3 3 10 34 17 70 11 64 21 115 40
208 27 133 34 223 21 273 -7 27 -17 84 -21 127 -16 141 -23 166 -83 276 -9 16
-21 32 -28 37 -10 6 -10 14 0 37 18 44 58 50 109 18 22 -14 43 -30 46 -35 4
-5 20 -12 36 -16 16 -4 40 -17 52 -31 13 -13 33 -24 46 -24 16 0 45 -22 86
-65 34 -36 66 -65 70 -65 4 0 19 -9 33 -20 14 -11 35 -20 47 -20 15 0 56 -34
119 -96 53 -53 97 -100 97 -105 0 -5 4 -9 9 -9 5 0 12 -11 15 -25 7 -26 49
-50 67 -39 17 10 -2 67 -37 108 -19 22 -34 43 -34 47 0 5 -11 19 -25 33 -14
14 -25 32 -25 39 0 8 -7 17 -15 21 -8 3 -15 17 -15 30 0 18 -9 30 -29 41 -16
8 -35 28 -43 45 -7 16 -18 30 -24 30 -6 0 -18 14 -25 32 -14 35 -71 98 -88 98
-6 0 -11 6 -11 13 0 7 -13 23 -28 34 -35 26 -66 87 -58 116 7 28 60 59 75 44
19 -19 307 -12 331 8 17 14 111 28 185 27 28 0 64 4 82 10 25 9 35 9 48 -2 9
-7 35 -15 58 -17 23 -3 57 -11 74 -20 25 -11 49 -13 100 -8 95 10 102 9 126
-18 12 -13 36 -29 52 -35 51 -19 168 -45 210 -47 49 -2 151 -48 182 -81 25
-27 34 -29 50 -13 16 16 -25 61 -49 53 -14 -4 -18 0 -18 20 0 18 -6 26 -17 27
-14 0 -13 3 5 11 26 13 29 40 6 63 -9 8 -13 22 -10 30 4 11 -3 15 -27 15 -18
0 -43 9 -57 20 -25 19 -52 20 -1522 20 l-1498 0 0 -170z"/>
<path d="M785 6191 c-66 -63 -95 -104 -95 -133 0 -23 4 -28 24 -28 14 0 27 -4
30 -9 9 -14 55 -19 64 -7 5 6 19 43 32 83 22 71 22 73 3 102 l-18 30 -40 -38z"/>
<path d="M2081 6154 c0 -11 3 -14 6 -6 3 7 2 16 -1 19 -3 4 -6 -2 -5 -13z"/>
<path d="M9050 5899 c-41 -9 -120 -24 -175 -34 -101 -18 -140 -34 -330 -135
-44 -24 -134 -71 -200 -105 -137 -70 -193 -105 -215 -131 -14 -17 -14 -21 2
-36 12 -12 18 -13 22 -5 2 7 5 -10 5 -36 1 -30 8 -59 19 -75 31 -44 36 -56 24
-48 -8 5 -10 1 -5 -11 10 -25 29 -43 46 -43 22 0 27 -22 9 -42 -14 -17 -12
-18 26 -18 23 0 42 5 42 10 0 18 21 10 51 -19 16 -16 29 -26 29 -21 0 4 19 2
43 -5 36 -11 46 -11 62 2 18 14 16 14 -23 8 l-43 -7 24 26 c16 17 31 24 41 20
23 -9 83 4 89 19 3 9 -5 12 -29 9 -19 -2 -34 0 -34 5 0 12 88 14 95 3 3 -5 13
-6 24 -3 10 2 25 -3 34 -11 9 -10 23 -13 34 -9 23 9 43 29 38 37 -3 3 -2 4 1
2 3 -3 17 -1 30 4 15 6 24 6 24 0 0 -6 8 -10 18 -9 10 0 12 3 4 6 -12 5 51 63
69 63 5 0 9 6 9 14 0 20 24 37 57 40 16 2 29 10 31 20 4 19 19 21 24 4 3 -7
10 -8 17 -4 11 7 11 10 0 17 -11 7 -11 9 1 9 8 0 28 16 44 35 16 19 33 35 37
35 5 0 19 11 33 25 13 13 36 27 50 31 33 8 115 -16 121 -36 7 -21 41 -41 78
-46 17 -2 33 -7 36 -12 3 -5 74 -10 156 -11 256 -5 258 -5 263 -18 3 -12 72
-19 72 -7 0 15 -22 44 -34 44 -8 0 -19 7 -26 15 -8 10 -31 15 -65 15 -35 0
-55 5 -58 14 -6 15 -54 15 -65 1 -11 -16 -64 -18 -73 -3 -7 10 -9 10 -9 1 0
-17 -26 -17 -33 0 -3 7 -3 33 -2 57 2 26 0 39 -5 31 -6 -10 -9 -8 -15 8 -3 11
-11 21 -16 21 -5 0 -9 11 -9 25 0 28 -13 32 -32 12 -17 -19 -58 -9 -58 13 0
10 7 20 15 24 8 3 18 23 21 45 4 23 13 46 20 52 8 6 14 17 14 25 0 7 7 20 17
29 13 14 14 18 3 25 -7 4 -19 6 -26 3 -8 -3 -21 2 -30 11 -11 12 -20 14 -28 6
-7 -5 -16 -7 -19 -3 -4 3 -51 10 -104 14 -54 4 -118 11 -143 16 -32 6 -66 4
-120 -8z m470 -329 c0 -5 -5 -10 -11 -10 -5 0 -7 5 -4 10 3 6 8 10 11 10 2 0
4 -4 4 -10z m-160 -50 c0 -5 -2 -10 -4 -10 -3 0 -8 5 -11 10 -3 6 -1 10 4 10
6 0 11 -4 11 -10z m-1100 -250 c0 -5 -2 -10 -4 -10 -3 0 -8 5 -11 10 -3 6 -1
10 4 10 6 0 11 -4 11 -10z"/>
<path d="M2789 5646 c-38 -26 -48 -51 -50 -130 -2 -34 -3 -36 -6 -11 -7 47
-20 51 -27 8 -22 -151 -28 -222 -21 -239 7 -15 10 -10 15 26 4 25 12 58 18 73
7 16 12 40 12 54 0 56 8 13 15 -79 6 -91 6 -96 -14 -103 -11 -3 -18 -11 -15
-18 5 -15 194 -21 194 -7 0 6 -6 10 -14 10 -7 0 -19 7 -26 15 -7 8 -21 15 -31
15 -30 0 -39 39 -46 189 -5 116 -3 141 11 169 9 17 21 32 26 32 6 0 10 5 10
10 0 16 -12 12 -51 -14z"/>
<path d="M2960 5645 c7 -9 15 -13 17 -11 7 7 -7 26 -19 26 -6 0 -6 -6 2 -15z"/>
<path d="M3000 5596 c0 -8 6 -21 13 -28 7 -7 18 -22 25 -33 11 -20 11 -20 12
1 0 12 -7 24 -15 28 -8 3 -15 12 -15 20 0 8 -4 18 -10 21 -5 3 -10 -1 -10 -9z"/>
<path d="M2486 5583 c-6 -14 -5 -15 5 -6 7 7 10 15 7 18 -3 3 -9 -2 -12 -12z"/>
<path d="M2440 5505 c0 -14 -4 -25 -8 -25 -5 0 -14 -18 -21 -41 -8 -26 -17
-39 -25 -36 -9 4 -11 -2 -8 -18 2 -12 -2 -33 -9 -46 -6 -13 -15 -76 -19 -140
-8 -114 -21 -159 -47 -159 -7 0 -13 -6 -13 -13 0 -6 -21 -37 -46 -67 -87 -105
-132 -249 -122 -385 6 -67 36 -147 81 -214 l30 -44 -25 -21 c-14 -12 -39 -28
-56 -38 -17 -9 -38 -28 -48 -42 -17 -28 -17 -32 17 -98 15 -29 11 -78 -6 -78
-8 0 -15 -7 -15 -15 0 -8 -5 -24 -12 -35 -10 -16 -8 -25 18 -57 17 -21 48 -46
68 -56 32 -15 37 -22 32 -40 -17 -59 -18 -165 -2 -214 16 -50 17 -50 65 -56
73 -9 113 -32 142 -84 l25 -47 351 -2 c258 -2 355 1 365 9 8 7 23 35 33 62 10
28 28 66 40 85 28 45 43 108 34 140 -4 14 -7 43 -8 66 -1 49 -27 130 -53 163
-39 51 -18 79 63 84 83 6 106 21 123 81 16 57 27 186 17 186 -4 0 -12 -5 -19
-12 -19 -19 -43 20 -36 59 5 29 3 34 -21 43 -22 9 -26 14 -20 33 11 32 21 176
13 170 -11 -6 -9 29 2 47 8 13 10 12 10 -4 0 -11 3 -17 6 -14 6 7 -44 200 -55
208 -4 3 -17 22 -30 43 -13 20 -42 51 -66 67 -24 17 -53 44 -65 60 -12 17 -31
30 -43 30 -12 0 -31 7 -41 15 -11 8 -29 15 -41 15 -11 0 -30 7 -41 15 -28 19
-103 45 -131 45 -14 0 -23 6 -23 15 0 8 -6 15 -13 15 -7 0 -34 20 -60 44 -32
29 -50 40 -53 31 -6 -14 -91 -41 -101 -31 -3 3 -1 41 5 83 10 77 6 173 -8 173
-9 0 -37 -66 -45 -105 -8 -44 -9 -116 0 -153 5 -27 4 -32 -12 -32 -10 0 -33
-9 -52 -21 -18 -11 -35 -18 -37 -16 -2 2 -7 30 -10 63 -6 55 22 270 41 317 4
10 3 17 -4 17 -6 0 -11 -11 -11 -25z m275 -347 c16 -24 4 -38 -18 -20 -8 7
-32 6 -76 -3 -35 -7 -71 -11 -79 -7 -11 4 -14 1 -9 -11 4 -10 2 -29 -3 -43 -8
-20 -14 -24 -28 -18 -9 4 -30 8 -46 9 -34 2 -43 16 -22 34 11 9 20 10 36 1 12
-6 25 -8 28 -4 4 4 2 9 -4 11 -20 7 39 63 62 59 11 -2 36 -1 55 4 61 14 87 11
104 -12z m-85 -71 c14 -2 4 -5 -24 -6 -42 -1 -47 1 -36 14 8 10 17 12 24 6 6
-5 22 -11 36 -14z m210 -160 c160 1 238 -13 277 -49 13 -12 23 -26 23 -31 0
-6 6 -18 14 -26 25 -29 56 -155 56 -231 0 -54 -5 -81 -21 -109 -38 -67 -154
-127 -268 -136 -36 -3 -84 -8 -106 -11 -22 -2 -35 -1 -29 3 7 5 -38 9 -100 9
-124 1 -168 15 -260 82 -72 52 -89 98 -75 196 5 42 16 94 23 114 16 44 76 142
100 161 27 23 117 40 171 34 28 -4 115 -6 195 -6z m-350 -1067 c0 -6 7 -10 15
-10 8 0 15 5 15 11 0 6 10 9 22 7 19 -2 25 -12 31 -48 4 -25 13 -67 19 -95 24
-105 5 -181 -52 -210 -102 -53 -172 31 -183 218 -6 83 -4 99 9 104 8 3 20 1
26 -5 13 -13 38 2 38 22 0 23 22 36 42 25 10 -5 18 -14 18 -19z m546 -15 c15
-23 18 -24 34 -10 22 20 46 19 54 -2 4 -9 9 -71 13 -138 l6 -121 -29 -33 c-23
-25 -40 -34 -75 -38 -38 -4 -50 -1 -77 22 -38 32 -48 67 -57 203 -6 111 0 126
44 102 16 -8 21 -8 21 3 0 17 20 37 37 37 7 0 20 -11 29 -25z"/>
<path d="M2609 4689 c-72 -77 -5 -236 74 -176 38 29 39 146 1 188 -24 27 -41
24 -75 -12z m31 -50 c0 -12 -29 -24 -37 -16 -3 4 -3 13 0 21 6 16 37 11 37 -5z
m58 -72 c2 -12 -3 -17 -17 -17 -12 0 -21 6 -21 13 0 31 32 34 38 4z"/>
<path d="M2955 4689 c-5 -15 -2 -25 9 -31 25 -14 21 -41 -5 -33 -21 7 -22 5
-16 -41 8 -71 47 -94 90 -51 l22 22 -22 3 c-13 2 -23 10 -23 18 0 10 8 14 23
12 17 -2 23 2 25 24 4 31 -23 88 -41 88 -6 0 -22 3 -34 6 -16 4 -23 0 -28 -17z"/>
<path d="M2760 4547 c0 -8 8 -21 18 -30 16 -14 21 -15 37 -3 27 19 13 46 -25
46 -18 0 -30 -5 -30 -13z"/>
<path d="M2914 5434 c-6 -25 2 -214 10 -221 2 -2 16 -1 31 3 l28 7 -7 84 c-8
111 -47 189 -62 127z"/>
<path d="M3085 5410 c3 -30 8 -99 11 -153 6 -80 9 -95 20 -86 18 15 18 45 -2
149 -22 121 -35 161 -29 90z"/>
<path d="M9965 5429 c-4 -5 -4 -22 0 -36 l6 -26 87 6 c60 4 81 3 67 -3 -17 -9
-16 -10 8 -6 20 2 25 0 18 -7 -14 -14 -14 -47 -1 -47 6 0 10 7 10 15 0 18 19
20 26 2 5 -15 46 -20 54 -7 3 5 16 11 28 13 12 2 25 6 28 10 4 4 18 7 31 7 13
0 23 6 23 14 0 9 -7 13 -19 11 -11 -2 -27 3 -38 10 -17 13 -16 14 11 15 39 0
27 10 -18 14 -20 2 -33 0 -30 -5 9 -15 -20 -10 -44 6 -15 11 -43 16 -94 15
-40 -1 -90 1 -110 4 -21 3 -40 1 -43 -5z"/>
<path d="M10348 5403 c7 -3 16 -2 19 1 4 3 -2 6 -13 5 -11 0 -14 -3 -6 -6z"/>
<path d="M2862 5175 c10 -10 49 -14 43 -4 -4 5 -16 9 -27 9 -12 0 -19 -2 -16
-5z"/>
<path d="M10725 4616 c-51 -15 -100 -43 -139 -80 -17 -15 -47 -40 -66 -55 -19
-14 -37 -29 -40 -32 -9 -10 -92 -27 -165 -34 -110 -10 -115 -12 -115 -43 0
-15 -5 -33 -10 -38 -6 -6 -13 -62 -16 -125 -3 -62 -12 -128 -19 -145 -7 -17
-16 -55 -19 -85 -4 -30 -12 -67 -18 -82 -13 -32 -5 -45 17 -27 12 10 18 10 31
-1 9 -7 31 -12 49 -11 26 3 33 -1 38 -17 3 -12 12 -21 21 -21 18 0 20 -25 16
-207 -1 -70 2 -113 8 -113 16 0 21 23 33 148 8 86 16 124 30 144 10 15 19 34
19 42 0 23 16 28 97 31 56 1 76 -1 80 -12 3 -7 20 -20 39 -28 23 -9 36 -23 40
-42 4 -15 16 -41 26 -58 10 -16 18 -38 18 -47 0 -10 5 -18 10 -18 6 0 10 6 10
14 0 8 22 22 50 32 28 10 50 22 50 26 0 4 9 8 20 8 11 0 20 -6 20 -14 0 -8 5
-18 10 -21 18 -11 104 -14 110 -4 8 13 37 2 44 -17 4 -10 -3 -16 -23 -20 -29
-6 -40 -25 -41 -69 0 -13 -14 -26 -40 -39 -22 -11 -40 -23 -40 -27 0 -11 -81
-64 -97 -64 -24 0 -53 -38 -53 -71 l0 -33 84 4 c107 5 133 12 139 37 5 16 11
19 30 14 16 -4 29 0 37 10 7 8 19 13 27 10 9 -4 13 3 13 19 0 27 25 34 115 34
28 0 61 1 75 2 36 2 65 -7 89 -27 25 -22 27 -37 6 -54 -20 -17 -19 -27 6 -41
42 -22 128 -33 204 -24 l65 7 0 554 0 554 -24 6 c-16 4 -48 -6 -98 -29 -59
-28 -89 -36 -158 -41 -89 -6 -193 -26 -248 -47 -31 -13 -33 -12 -63 21 l-31
34 62 57 c54 51 60 60 50 78 -6 12 -17 21 -26 21 -8 0 -31 11 -52 24 -26 17
-58 26 -107 30 -38 4 -86 8 -105 11 -19 2 -53 -2 -75 -9z m585 -525 c0 -4 -3
-11 -7 -15 -5 -4 -8 -20 -9 -34 -1 -70 -5 -92 -14 -92 -6 0 -22 -12 -36 -27
-13 -16 -24 -23 -23 -18 4 32 -2 47 -17 41 -26 -10 -44 13 -44 55 0 27 5 41
19 48 10 6 21 7 25 4 3 -3 6 3 6 15 0 11 5 22 11 24 21 6 89 6 89 -1z m-80
-260 c0 -5 -6 -12 -12 -15 -10 -5 -10 -7 0 -12 18 -9 16 -84 -3 -84 -12 0 -15
13 -15 60 0 47 3 60 15 60 8 0 15 -4 15 -9z m-113 -53 c-3 -8 -6 -5 -6 6 -1
11 2 17 5 13 3 -3 4 -12 1 -19z m-37 -24 c0 -14 -21 -19 -33 -7 -9 9 13 34 24
27 5 -3 9 -12 9 -20z"/>
<path d="M10024 4375 c-4 -8 -11 -15 -18 -15 -15 0 -50 -65 -42 -79 4 -5 3
-28 0 -51 -10 -60 -30 -64 -154 -34 -57 14 -125 24 -151 23 -27 -2 -52 0 -55
4 -7 7 -54 -77 -54 -97 0 -7 8 -20 18 -29 39 -36 112 -215 112 -276 0 -19 8
-36 24 -48 21 -16 23 -23 18 -58 -4 -22 -11 -38 -15 -35 -13 8 -48 -103 -36
-115 5 -5 9 -23 9 -40 -1 -25 -2 -27 -11 -12 -12 20 -31 23 -28 5 4 -31 -3
-42 -12 -19 -14 35 -42 8 -37 -36 5 -39 -4 -43 -20 -8 -14 30 -18 30 -84 5
-29 -11 -62 -20 -74 -20 -11 0 -24 -3 -28 -7 -3 -4 -14 -8 -22 -9 -9 -1 -23
-6 -32 -10 -26 -10 -54 -15 -89 -15 -18 1 -33 -3 -33 -8 0 -13 -72 -4 -81 11
-14 21 -10 28 14 29 39 1 -31 19 -101 26 -86 7 -131 -2 -125 -26 7 -28 -70
-55 -134 -48 -26 3 -64 8 -83 10 -54 6 -88 -3 -104 -28 l-15 -23 37 10 c22 6
78 8 138 4 83 -5 103 -4 113 8 20 24 94 56 130 56 36 0 78 -19 103 -47 17 -19
16 -20 -35 -43 -37 -17 -67 -24 -103 -22 -65 2 -97 -21 -112 -79 -15 -57 0
-95 43 -109 44 -14 72 -6 119 36 21 18 46 34 55 34 9 0 27 7 40 17 l24 16 -6
-42 c-9 -69 -39 -93 -148 -121 -58 -15 -75 -25 -130 -79 -109 -106 -173 -125
-245 -72 -78 57 -121 220 -91 351 5 23 5 30 -1 20 -6 -8 -13 -35 -17 -60 -11
-66 -12 -74 -23 -113 -9 -31 -8 -34 8 -30 15 4 17 1 13 -15 -2 -11 0 -23 6
-26 6 -4 11 -20 11 -36 0 -16 6 -35 14 -42 7 -8 16 -24 20 -35 4 -14 13 -20
21 -17 9 4 19 -4 26 -23 20 -51 26 -58 47 -55 30 4 62 -15 56 -33 -4 -8 -2
-15 4 -15 5 0 12 -13 16 -30 4 -21 11 -30 25 -30 11 0 23 5 26 10 3 6 1 10 -6
10 -10 0 -10 3 -1 12 8 8 15 8 26 -1 13 -11 16 -8 22 14 5 20 9 23 15 13 5 -7
9 -23 9 -35 0 -13 3 -23 8 -24 46 -4 71 -7 90 -13 20 -7 22 -4 22 31 0 21 -5
45 -10 53 -8 13 -10 12 -10 -2 0 -11 -8 -18 -19 -18 -15 0 -18 5 -13 23 3 12
12 28 19 35 7 7 13 31 13 51 0 43 18 65 45 55 11 -5 21 -1 27 9 10 20 102 67
129 67 10 0 19 7 19 15 0 19 3 19 42 -5 18 -11 39 -20 46 -20 20 0 14 34 -13
74 -31 45 -31 50 -1 69 17 12 26 13 35 4 8 -8 14 -8 23 1 9 9 8 15 -7 26 -16
12 -18 18 -8 37 6 13 14 32 17 42 3 9 15 17 26 17 15 0 20 7 20 26 0 15 4 23
11 19 5 -4 19 1 30 11 10 9 19 14 19 10 0 -3 16 1 36 9 20 8 46 15 59 15 12 0
37 8 56 17 19 9 59 18 89 18 76 2 90 10 90 51 0 37 15 46 25 14 8 -26 30 -25
49 2 22 31 20 52 -9 86 -28 34 -33 70 -10 78 8 4 31 3 50 0 32 -6 37 -12 47
-51 7 -25 15 -45 19 -45 3 0 9 22 11 49 3 26 15 68 26 93 12 24 22 48 22 52 0
12 82 85 103 92 9 3 17 8 18 12 0 4 3 67 5 141 2 73 8 139 14 146 5 6 7 15 3
18 -3 4 0 14 7 22 7 9 14 28 16 43 1 15 5 56 8 92 6 64 6 66 -23 83 -36 21
-70 22 -77 2z m86 -31 c0 -8 -4 -12 -10 -9 -5 3 -10 10 -10 16 0 5 5 9 10 9 6
0 10 -7 10 -16z m-390 -821 c-1 -36 -2 -37 -15 -19 -19 26 -19 56 0 56 11 0
15 -11 15 -37z m-10 -74 c0 -20 -15 -26 -25 -9 -9 15 3 43 15 35 5 -3 10 -15
10 -26z m-823 -221 c-3 -8 -6 -5 -6 6 -1 11 2 17 5 13 3 -3 4 -12 1 -19z m-7
-48 c0 -5 -5 -10 -11 -10 -5 0 -7 5 -4 10 3 6 8 10 11 10 2 0 4 -4 4 -10z
m-103 -406 c-3 -3 -12 -4 -19 -1 -8 3 -5 6 6 6 11 1 17 -2 13 -5z m117 -29 c3
-9 0 -15 -9 -15 -9 0 -12 6 -9 15 4 8 7 15 9 15 2 0 5 -7 9 -15z"/>
<path d="M8752 3871 c-10 -6 -8 -10 8 -14 14 -4 21 -12 18 -24 -4 -23 -33 -24
-32 0 3 29 -20 13 -33 -24 -19 -53 -16 -102 7 -127 27 -28 34 -28 64 4 68 74
40 231 -32 185z"/>
<path d="M9042 3807 c-12 -13 -22 -31 -22 -40 0 -9 -4 -18 -9 -22 -13 -7 -2
-74 15 -102 29 -46 99 -14 108 49 4 28 3 71 -3 100 -3 15 -33 38 -50 38 -10 0
-27 -10 -39 -23z m56 -20 c4 -20 -25 -34 -40 -19 -15 15 -1 44 19 40 10 -2 19
-11 21 -21z"/>
<path d="M0 3180 c0 -83 2 -150 5 -150 3 0 30 18 60 40 37 27 52 45 49 55 -4
8 0 23 7 32 13 15 11 16 -12 10 -25 -6 -28 -2 -55 56 -15 34 -27 69 -26 79 1
9 -5 19 -13 22 -13 5 -15 -17 -15 -144z"/>
<path d="M8614 3218 c-4 -6 0 -16 9 -23 10 -7 17 -17 17 -24 0 -6 5 -11 10
-11 12 0 12 0 -1 39 -11 32 -23 39 -35 19z"/>
<path d="M180 3156 c0 -15 8 -30 20 -36 11 -6 20 -19 20 -29 0 -10 7 -25 17
-32 9 -8 25 -32 36 -54 37 -77 57 -110 73 -122 14 -11 15 -16 2 -55 -14 -39
-18 -43 -46 -42 -24 1 -32 -3 -32 -17 0 -11 9 -19 22 -21 13 -2 24 -11 26 -22
7 -33 33 -51 78 -52 131 -5 166 -25 168 -96 1 -42 1 -43 40 -46 54 -5 62 8 32
53 -14 21 -26 45 -26 54 0 9 -6 28 -14 42 -7 14 -16 36 -19 50 -4 14 -34 54
-67 89 -96 103 -130 148 -130 174 0 8 -6 19 -14 23 -7 4 -21 23 -30 41 -9 18
-25 41 -34 50 -9 10 -24 27 -32 39 -9 13 -31 25 -52 29 -36 6 -38 5 -38 -20z"/>
<path d="M8610 3115 c0 -29 31 -95 53 -114 21 -17 30 1 22 40 -5 23 -10 28
-18 20 -18 -18 -24 -13 -31 28 -7 46 -26 65 -26 26z"/>
<path d="M9502 3030 c0 -19 2 -27 5 -17 2 9 2 25 0 35 -3 9 -5 1 -5 -18z"/>
<path d="M8381 2983 c-6 -21 -11 -52 -11 -70 0 -30 -20 -60 -20 -31 -1 28 -17
-18 -23 -64 -5 -34 -3 -47 7 -51 18 -7 36 12 36 38 0 12 9 47 19 78 25 73 31
137 11 137 -5 0 -14 -17 -19 -37z"/>
<path d="M8204 2978 c3 -13 9 -50 12 -83 8 -81 15 -98 24 -55 5 19 15 61 24
93 9 32 16 60 16 62 0 3 -19 5 -41 5 -38 0 -41 -2 -35 -22z"/>
<path d="M43 2907 l-43 -21 0 -113 c0 -62 3 -113 7 -113 18 0 73 47 73 62 0
11 12 20 33 26 21 5 33 15 35 29 2 13 14 24 35 30 28 8 32 13 33 48 2 53 -14
66 -70 59 -31 -5 -46 -3 -46 5 0 15 -8 13 -57 -12z"/>
<path d="M8631 2794 c0 -11 3 -14 6 -6 3 7 2 16 -1 19 -3 4 -6 -2 -5 -13z"/>
<path d="M1275 2780 c3 -5 8 -10 11 -10 2 0 4 5 4 10 0 6 -5 10 -11 10 -5 0
-7 -4 -4 -10z"/>
<path d="M9881 2773 c19 -24 31 -33 47 -33 8 0 0 11 -16 25 -35 29 -51 33 -31
8z"/>
<path d="M9575 2708 c-19 -78 -15 -109 10 -75 10 13 14 15 18 5 8 -19 6 82 -2
117 -6 27 -9 21 -26 -47z"/>
<path d="M1300 2752 c0 -12 7 -25 15 -29 27 -10 30 6 7 30 l-22 21 0 -22z"/>
<path d="M8645 2750 c3 -5 8 -10 11 -10 2 0 4 5 4 10 0 6 -5 10 -11 10 -5 0
-7 -4 -4 -10z"/>
<path d="M1456 2685 c4 -8 11 -15 16 -15 6 0 5 6 -2 15 -7 8 -14 15 -16 15 -2
0 -1 -7 2 -15z"/>
<path d="M9425 2641 c-3 -5 -1 -12 5 -16 5 -3 10 1 10 9 0 18 -6 21 -15 7z"/>
<path d="M782 2596 c7 -8 15 -12 17 -11 5 6 -10 25 -20 25 -5 0 -4 -6 3 -14z"/>
<path d="M9630 2584 c-6 -14 -10 -42 -11 -62 0 -20 -6 -72 -13 -114 -7 -42 -9
-75 -5 -73 4 3 9 17 12 32 14 67 44 162 56 176 10 13 9 20 -4 41 -21 32 -23
32 -35 0z"/>
<path d="M811 2473 c-1 -33 2 -38 22 -37 18 1 23 -11 8 -21 -5 -3 3 -18 17
-33 25 -25 31 -27 71 -20 47 8 64 18 44 25 -7 2 -28 17 -49 33 -20 17 -40 28
-44 25 -4 -3 -10 2 -14 10 -3 8 -14 15 -25 15 -11 0 -22 6 -24 13 -3 6 -6 2
-6 -10z"/>
<path d="M5323 2473 c-7 -2 -13 -17 -12 -31 0 -15 3 -21 6 -14 2 6 11 12 19
12 8 0 14 9 14 20 0 20 -5 23 -27 13z"/>
<path d="M5395 2470 c-4 -6 -10 -8 -15 -5 -11 7 -20 -29 -17 -65 2 -19 -3 -26
-20 -28 -26 -4 -29 -12 -11 -30 34 -34 102 10 114 74 5 30 3 40 -11 51 -22 16
-32 16 -40 3z"/>
<path d="M8283 2453 c-9 -3 -11 -17 -7 -41 3 -20 1 -49 -5 -64 -7 -19 -7 -45
0 -85 20 -111 25 -128 37 -125 16 3 16 -35 0 -42 -7 -3 5 -4 27 -3 40 2 40 2
41 45 0 28 -4 42 -13 42 -7 0 -13 8 -13 18 0 9 -3 27 -6 39 -9 34 21 41 46 12
10 -13 19 -30 20 -36 0 -7 5 -13 11 -13 5 0 7 -5 4 -10 -3 -6 0 -13 8 -16 9
-3 18 -15 21 -27 8 -31 45 -77 46 -57 0 9 -9 23 -20 33 -20 17 -29 54 -10 42
6 -3 10 -1 10 4 0 6 -6 11 -14 11 -8 0 -18 5 -22 12 -5 8 -2 9 10 5 10 -4 15
-3 11 3 -3 6 -12 10 -19 10 -8 0 -16 16 -20 38 -3 21 -17 52 -31 68 -14 16
-25 35 -25 42 0 24 -41 72 -60 72 -13 0 -17 5 -14 15 6 16 6 16 -13 8z"/>
<path d="M3815 2419 c-5 -15 -9 -18 -15 -9 -10 17 -17 3 -24 -55 -5 -37 -3
-55 8 -70 9 -11 16 -15 16 -8 0 6 -4 14 -10 18 -5 3 -6 13 -3 22 5 12 10 8 22
-18 40 -85 130 -17 105 78 -4 13 -10 20 -15 17 -5 -3 -7 -10 -3 -15 11 -18 -6
-58 -27 -64 -30 -10 -40 11 -32 73 6 53 -9 74 -22 31z"/>
<path d="M4182 2410 c0 -14 2 -19 5 -12 2 6 2 18 0 25 -3 6 -5 1 -5 -13z"/>
<path d="M5670 2411 c0 -12 5 -21 11 -21 5 0 8 -3 6 -7 -10 -17 13 -53 34 -53
l21 0 -21 18 c-12 9 -23 30 -24 46 -3 34 -27 49 -27 17z"/>
<path d="M6926 2417 c3 -9 1 -24 -6 -32 -12 -15 -7 -17 28 -14 11 1 2 32 -14
49 -13 13 -14 13 -8 -3z"/>
<path d="M10394 2410 c-27 -10 -39 -29 -28 -40 5 -5 22 2 38 14 30 25 25 39
-10 26z"/>
<path d="M10004 2398 c-9 -15 10 -30 29 -22 9 3 17 10 17 14 0 12 -39 19 -46
8z"/>
<path d="M7226 2365 c-4 -10 1 -15 14 -15 13 0 18 5 14 15 -4 8 -10 15 -14 15
-4 0 -10 -7 -14 -15z"/>
<path d="M4537 2329 c-3 -8 -12 -39 -21 -70 -21 -71 -21 -100 -1 -93 9 4 15
19 15 39 0 18 7 52 15 76 10 28 12 46 6 52 -7 7 -12 5 -14 -4z"/>
<path d="M840 2309 c0 -5 5 -7 10 -4 6 3 10 8 10 11 0 2 -4 4 -10 4 -5 0 -10
-5 -10 -11z"/>
<path d="M4015 2310 c-3 -6 -3 -19 0 -30 9 -27 51 -27 60 1 8 24 8 24 -27 33
-15 3 -30 2 -33 -4z"/>
<path d="M4632 2268 c-6 -18 -13 -45 -16 -60 -4 -17 -17 -31 -36 -40 -34 -15
-36 -20 -15 -38 13 -10 15 -9 15 9 0 12 3 20 8 17 14 -9 39 20 54 64 9 25 19
53 23 63 5 12 2 17 -8 17 -9 0 -20 -14 -25 -32z"/>
<path d="M4747 2253 c-11 -19 -18 -73 -9 -73 5 0 12 10 15 23 2 12 8 30 12 40
7 16 -9 25 -18 10z"/>
<path d="M4711 2148 c-1 -22 -5 -26 -18 -21 -15 5 -16 3 -5 -8 17 -18 35 2 29
32 -4 22 -4 22 -6 -3z"/>
<path d="M9653 2126 c7 -48 10 -50 36 -36 24 12 29 45 6 36 -8 -3 -21 4 -31
17 -16 21 -16 21 -11 -17z"/>
<path d="M4510 2142 c0 -12 19 -26 26 -19 2 2 -2 10 -11 17 -9 8 -15 8 -15 2z"/>
<path d="M9587 2113 c-16 -29 -15 -65 2 -104 22 -49 20 -59 -15 -59 -17 0 -24
-6 -24 -18 0 -18 24 -35 68 -47 22 -6 22 -5 16 52 -4 32 -8 60 -10 62 -2 2 1
11 6 21 6 11 4 26 -6 44 -8 16 -14 35 -14 42 0 15 -16 19 -23 7z m23 -40 c0
-5 -5 -15 -10 -23 -8 -12 -10 -11 -10 8 0 12 5 22 10 22 6 0 10 -3 10 -7z"/>
<path d="M8530 2081 c0 -5 5 -13 10 -16 6 -3 10 -2 10 4 0 5 -4 13 -10 16 -5
3 -10 2 -10 -4z"/>
<path d="M8510 2056 c0 -8 5 -18 10 -21 6 -3 10 1 10 9 0 8 -4 18 -10 21 -5 3
-10 -1 -10 -9z"/>
<path d="M4565 2040 c3 -5 8 -10 11 -10 2 0 4 5 4 10 0 6 -5 10 -11 10 -5 0
-7 -4 -4 -10z"/>
<path d="M908 2015 c6 -33 19 -40 38 -20 13 12 14 19 4 30 -7 8 -20 15 -30 15
-13 0 -16 -6 -12 -25z"/>
<path d="M8580 1991 c0 -8 -6 -11 -15 -7 -10 3 -15 -1 -15 -13 0 -10 7 -22 16
-25 25 -10 74 -7 74 4 0 6 -6 10 -14 10 -8 0 -22 10 -30 22 -9 12 -16 16 -16
9z"/>
<path d="M876 1893 c-11 -11 -6 -23 9 -23 8 0 15 4 15 9 0 13 -16 22 -24 14z"/>
<path d="M9613 1842 c-41 -4 -43 -22 -3 -22 17 0 30 -4 30 -10 0 -5 0 -13 0
-17 0 -4 -25 -8 -55 -8 -63 -1 -70 -6 -79 -56 -6 -35 -6 -36 36 -46 24 -6 75
-21 113 -33 91 -28 241 -45 278 -31 46 18 21 31 -57 31 -81 0 -113 16 -141 71
-9 16 -22 29 -29 29 -8 0 -17 11 -20 25 -4 14 -12 25 -19 25 -8 0 -9 3 -1 8
20 13 -18 37 -53 34z"/>
<path d="M10268 1793 c-2 -24 -8 -37 -15 -35 -7 1 -13 -3 -13 -10 0 -6 -13 1
-30 17 l-30 29 0 -30 c0 -41 -9 -48 -34 -25 -12 11 -32 21 -46 23 -20 2 -26
-2 -28 -19 -2 -13 -8 -23 -13 -23 -5 0 -19 -11 -31 -25 -12 -14 -30 -25 -40
-25 -10 0 -18 -7 -18 -15 0 -8 2 -15 5 -15 3 0 47 -7 98 -15 113 -18 377 -28
397 -15 11 7 9 11 -13 19 -16 6 -36 11 -45 11 -18 1 -82 54 -82 69 0 5 -7 14
-15 21 -7 6 -17 32 -21 56 -8 54 -22 57 -26 7z"/>
<path d="M8100 1769 c0 -18 2 -19 15 -9 15 12 12 30 -6 30 -5 0 -9 -10 -9 -21z"/>
<path d="M8225 1740 c-66 -5 -68 -5 -30 -12 50 -10 192 -9 265 2 46 6 49 8 20
10 -75 5 -188 5 -255 0z"/>
<path d="M1495 1709 c-17 -17 -36 -28 -46 -26 -9 3 -24 -4 -33 -14 -9 -11 -24
-20 -33 -21 -10 0 -22 -2 -28 -3 -5 -2 -15 -3 -21 -4 -6 0 -16 -12 -22 -26
-16 -35 -3 -38 94 -25 43 5 119 15 169 20 87 10 122 23 99 38 -6 4 -19 26 -29
49 -10 23 -22 40 -25 38 -10 -6 0 -55 11 -55 5 0 9 -4 9 -10 0 -17 -78 30 -83
50 -7 28 -27 24 -62 -11z"/>
<path d="M8002 1728 c7 -20 68 -23 68 -4 0 12 -10 16 -36 16 -24 0 -34 -4 -32
-12z"/>
<path d="M8118 1733 c6 -2 18 -2 25 0 6 3 1 5 -13 5 -14 0 -19 -2 -12 -5z"/>
<path d="M933 1704 c-3 -8 -1 -20 6 -27 8 -8 11 -4 11 16 0 30 -7 35 -17 11z"/>
<path d="M8935 1696 c6 -3 50 -10 99 -15 50 -6 94 -15 100 -21 13 -13 63 -13
71 -1 3 5 21 7 40 4 43 -7 48 12 6 20 -36 8 -330 19 -316 13z"/>
<path d="M1047 1631 c-3 -14 -1 -18 9 -14 16 6 18 19 5 27 -5 3 -11 -3 -14
-13z"/>
<path d="M870 1573 c0 -55 33 -72 141 -74 76 -2 113 14 60 26 -32 7 -43 25
-15 25 8 0 13 4 9 9 -3 6 -18 3 -36 -7 -29 -17 -31 -16 -51 8 -14 16 -22 21
-25 13 -7 -20 -37 -15 -51 7 -17 28 -32 25 -32 -7z"/>
<path d="M1090 1575 c0 -8 7 -15 16 -15 14 0 14 3 4 15 -7 8 -14 15 -16 15 -2
0 -4 -7 -4 -15z"/>
<path d="M8677 1573 c-3 -5 -5 -31 -5 -60 0 -49 2 -52 31 -62 24 -9 35 -8 54
4 12 9 23 22 23 31 0 18 -28 64 -49 82 -16 13 -47 16 -54 5z"/>
<path d="M8830 1570 c0 -5 7 -10 15 -10 8 0 15 5 15 10 0 6 -7 10 -15 10 -8 0
-15 -4 -15 -10z"/>
<path d="M2654 1420 c-15 -6 -14 -8 7 -13 42 -12 -2 -28 -73 -26 -50 2 -193
-16 -206 -26 -1 -1 0 -10 4 -19 4 -12 19 -16 54 -16 27 0 52 -5 55 -10 4 -7
-2 -9 -18 -5 -14 4 -28 2 -31 -4 -8 -13 -56 -15 -56 -2 0 5 -9 11 -21 14 -12
3 -19 10 -16 14 12 18 -10 34 -36 27 -28 -6 -34 -18 -17 -29 6 -3 13 2 17 11
6 16 7 16 14 -2 8 -24 -10 -51 -23 -32 -6 10 -10 10 -18 -2 -13 -20 36 -26
253 -29 l167 -3 0 81 c0 85 -3 89 -56 71z m20 -71 c20 -30 10 -56 -13 -32 -11
13 -35 19 -81 22 -36 2 -67 5 -70 8 -12 11 31 23 87 23 52 0 64 -3 77 -21z
m-184 -9 c11 -7 4 -10 -25 -10 -29 0 -36 3 -25 10 8 5 20 10 25 10 6 0 17 -5
25 -10z"/>
<path d="M2430 1412 c-48 -5 -64 -22 -19 -21 18 1 48 4 64 8 24 6 26 8 10 11
-11 3 -36 4 -55 2z"/>
<path d="M2544 1413 c7 -7 77 -5 85 3 2 2 -17 4 -44 4 -27 0 -45 -3 -41 -7z"/>
<path d="M5283 1383 c-17 -3 -23 -11 -23 -32 0 -16 -7 -46 -16 -66 -8 -21 -19
-77 -23 -124 -4 -47 -10 -93 -12 -101 -3 -10 5 -16 26 -18 17 -2 49 -10 73
-18 46 -15 70 -11 53 10 -7 8 -3 50 10 126 23 139 23 162 4 200 -16 30 -33 34
-92 23z"/>
<path d="M6992 1233 c-46 -38 -42 -53 16 -53 78 -1 203 -10 274 -20 37 -6 84
-10 105 -9 37 0 37 1 13 12 -14 6 -27 14 -30 17 -21 25 -61 40 -106 40 -28 0
-66 5 -83 11 -24 9 -35 9 -44 0 -16 -16 -46 -13 -82 9 l-32 20 -31 -27z"/>
<path d="M6633 1225 c-20 -22 -16 -32 18 -44 43 -15 261 -15 236 0 -10 6 -29
8 -42 5 -32 -8 -152 18 -174 38 -21 19 -23 19 -38 1z"/>
<path d="M2619 1226 c-2 -3 -72 -5 -154 -7 -83 -1 -171 -4 -197 -7 l-48 -5 0
-55 0 -55 53 7 c28 3 60 6 70 6 13 0 17 9 17 39 0 47 9 51 128 51 l82 0 0 -34
c0 -24 -5 -36 -17 -39 -10 -3 21 -5 70 -6 l87 -1 0 49 c0 35 -4 51 -16 55 -18
7 -69 8 -75 2z m46 -51 c0 -25 -4 -30 -25 -30 -28 0 -39 27 -19 51 20 24 44
13 44 -21z m-347 -10 c4 -31 -11 -45 -39 -38 -24 7 -25 48 -1 62 25 15 37 8
40 -24z"/>
<path d="M3919 1189 c-13 -11 -30 -24 -37 -30 -7 -6 -19 -8 -27 -6 -7 3 -21
-1 -32 -8 -10 -8 -37 -15 -59 -15 -27 0 -44 -5 -47 -15 -10 -24 10 -27 116
-19 56 4 120 6 142 6 55 -3 72 9 53 37 -8 11 -30 31 -50 44 -34 24 -35 24 -59
6z"/>
<path d="M4923 1188 c-5 -7 -13 -21 -16 -30 -4 -11 -17 -18 -33 -18 -23 0 -25
-2 -14 -16 15 -17 74 -44 97 -44 21 0 14 114 -8 118 -9 1 -20 -3 -26 -10z"/>
<path d="M3225 1143 c-15 -36 -15 -39 4 -54 22 -18 131 -40 171 -35 14 2 34 4
44 5 26 1 11 14 -22 19 -15 2 -38 10 -52 17 -14 8 -40 22 -57 31 -18 10 -35
26 -39 36 -9 30 -33 21 -49 -19z"/>
<path d="M7438 1153 c7 -3 16 -2 19 1 4 3 -2 6 -13 5 -11 0 -14 -3 -6 -6z"/>
<path d="M2066 1077 c-11 -8 -15 -17 -9 -20 17 -11 136 -27 188 -26 l50 2 -63
7 c-34 4 -70 14 -80 23 -26 24 -64 30 -86 14z"/>
<path d="M2480 1050 l-85 -6 120 -1 c66 -1 140 2 165 6 39 7 35 8 -35 8 -44 0
-118 -4 -165 -7z"/>
<path d="M2368 1043 c7 -3 16 -2 19 1 4 3 -2 6 -13 5 -11 0 -14 -3 -6 -6z"/>
<path d="M5617 980 c-4 -15 0 -20 14 -20 12 0 19 7 19 20 0 11 -6 20 -14 20
-7 0 -16 -9 -19 -20z"/>
<path d="M3324 559 c-2 -4 4 -10 13 -13 10 -3 29 -23 43 -44 l25 -37 3 33 c2
18 -2 39 -8 47 -12 15 -69 25 -76 14z"/>
</g>
</svg>
